<?xml version="1.0" standalone="no"?>
<!DOCTYPE svg PUBLIC "-//W3C//DTD SVG 20010904//EN"
 "http://www.w3.org/TR/2001/REC-SVG-20010904/DTD/svg10.dtd">
<svg version="1.0" xmlns="http://www.w3.org/2000/svg"
 width="17.000000pt" height="16.000000pt" viewBox="0 0 17.000000 16.000000"
 preserveAspectRatio="xMidYMid meet">
<metadata>
Created by potrace 1.16, written by Peter Selinger 2001-2019
</metadata>
<g transform="translate(0.000000,16.000000) scale(0.100000,-0.100000)"
fill="#000000" stroke="none">
<path d="M55 150 c4 -6 -7 -10 -24 -10 -17 0 -31 -4 -31 -10 0 -5 5 -10 10
-10 6 0 10 -27 10 -60 l0 -60 60 0 60 0 0 56 c0 42 4 60 18 70 15 12 13 13
-21 14 -23 0 -36 4 -32 10 4 6 -7 10 -25 10 -18 0 -29 -4 -25 -10z"/>
</g>
</svg>
