<?xml version="1.0" standalone="no"?>
<!DOCTYPE svg PUBLIC "-//W3C//DTD SVG 20010904//EN"
 "http://www.w3.org/TR/2001/REC-SVG-20010904/DTD/svg10.dtd">
<svg version="1.0" xmlns="http://www.w3.org/2000/svg"
 width="17.000000pt" height="15.000000pt" viewBox="0 0 17.000000 15.000000"
 preserveAspectRatio="xMidYMid meet">
<metadata>
Created by potrace 1.16, written by Peter Selinger 2001-2019
</metadata>
<g transform="translate(0.000000,15.000000) scale(0.100000,-0.100000)"
fill="#000000" stroke="none">
<path d="M30 140 c0 -5 -7 -10 -15 -10 -12 0 -15 -14 -15 -65 l0 -66 83 3 82
3 3 63 c2 49 0 62 -12 62 -8 0 -17 6 -20 13 -5 10 -7 10 -12 0 -7 -15 -74 -18
-74 -3 0 6 -4 10 -10 10 -5 0 -10 -4 -10 -10z"/>
</g>
</svg>
