<?xml version="1.0" standalone="no"?>
<!DOCTYPE svg PUBLIC "-//W3C//DTD SVG 20010904//EN"
 "http://www.w3.org/TR/2001/REC-SVG-20010904/DTD/svg10.dtd">
<svg version="1.0" xmlns="http://www.w3.org/2000/svg"
 width="19.000000pt" height="17.000000pt" viewBox="0 0 19.000000 17.000000"
 preserveAspectRatio="xMidYMid meet">

<g transform="translate(0.000000,17.000000) scale(0.100000,-0.100000)"
fill="#000000" stroke="none">
<path d="M80 133 c-9 -26 -18 -33 -38 -33 l-27 -1 21 -17 c16 -14 19 -23 12
-41 -11 -31 -3 -38 21 -17 18 17 21 17 45 1 l26 -17 -6 30 c-5 23 -1 33 17 46
l23 16 -27 0 c-22 0 -31 7 -42 33 l-14 32 -11 -32z"/>
</g>
</svg>
