<?xml version="1.0" standalone="no"?>
<!DOCTYPE svg PUBLIC "-//W3C//DTD SVG 20010904//EN"
 "http://www.w3.org/TR/2001/REC-SVG-20010904/DTD/svg10.dtd">
<svg version="1.0" xmlns="http://www.w3.org/2000/svg"
 width="19.000000pt" height="17.000000pt" viewBox="0 0 19.000000 17.000000"
 preserveAspectRatio="xMidYMid meet">

<g transform="translate(0.000000,17.000000) scale(0.100000,-0.100000)"
fill="#000000" stroke="none">
<path d="M14 149 c-22 -25 -13 -54 36 -109 l40 -45 45 50 c72 81 57 123 -44
123 -46 0 -64 -4 -77 -19z m65 -8 c9 -6 21 -5 32 2 13 8 21 7 33 -2 23 -19 20
-31 -19 -76 l-34 -40 -35 40 c-38 44 -42 55 -24 73 14 14 28 15 47 3z"/>
</g>
</svg>
